<?xml version="1.0" encoding="UTF-8"?>
<svg width="107px" height="107px" viewBox="0 0 107 107" version="1.1" xmlns="http://www.w3.org/2000/svg" xmlns:xlink="http://www.w3.org/1999/xlink">
    <!-- Generator: Sketch 49 (51002) - http://www.bohemiancoding.com/sketch -->
    <title>Group 4</title>
    <desc>Created with Sketch.</desc>
    <defs></defs>
    <g id="Page-1" stroke="none" stroke-width="1" fill="none" fill-rule="evenodd">
        <g id="Landing-Page" transform="translate(-409.000000, -1523.000000)">
            <g id="Group-4" transform="translate(409.000000, 1523.000000)">
                <path d="M8,0 L99,-8.8817842e-16 C103.418278,-1.69980292e-15 107,3.581722 107,8 L107,107 L0,107 L-8.8817842e-16,8 C-1.42926142e-15,3.581722 3.581722,8.11624501e-16 8,0 Z" id="Rectangle-10" fill="#181818"></path>
                <text id="&gt;" font-family="ArvilSans, Arvil" font-size="48" font-weight="normal" letter-spacing="0.416000128" fill="#FFFFFF">
                    <tspan x="15" y="40">&gt;</tspan>
                </text>
                <path d="M33.5,24.5 L58.519992,24.5" id="Line-4" stroke="#979797" stroke-width="3" stroke-linecap="round"></path>
                <path d="M83.6514873,32.5 L91.519992,32.5" id="Line-4" stroke="#979797" stroke-width="3" stroke-linecap="round"></path>
                <path d="M33.4886534,47 L44.5108644,47" id="Line-4" stroke="#979797" stroke-width="3" stroke-linecap="round"></path>
                <path d="M66.5,24.5 L91.519992,24.5" id="Line-4" stroke="#979797" stroke-width="3" stroke-linecap="round"></path>
                <path d="M33.5,32.5 L76.627752,32.5" id="Line-4" stroke="#979797" stroke-width="3" stroke-linecap="round"></path>
                <path d="M52.5,47 L91.127752,47" id="Line-4" stroke="#979797" stroke-width="3" stroke-linecap="round"></path>
                <polyline id="Line-4" stroke="#979797" stroke-width="3" stroke-linecap="round" points="33.5 40 76.2585281 40 91.403254 40"></polyline>
            </g>
        </g>
    </g>
</svg>