<?xml version="1.0" encoding="UTF-8"?>
<svg width="121px" height="111px" viewBox="0 0 121 111" version="1.1" xmlns="http://www.w3.org/2000/svg" xmlns:xlink="http://www.w3.org/1999/xlink">
    <!-- Generator: Sketch 49 (51002) - http://www.bohemiancoding.com/sketch -->
    <title>Fill 5</title>
    <desc>Created with Sketch.</desc>
    <defs></defs>
    <g id="Page-1" stroke="none" stroke-width="1" fill="none" fill-rule="evenodd">
        <g id="Landing-Page" transform="translate(-410.000000, -1690.000000)" fill="#D9D9D9">
            <g id="Fill-5" transform="translate(384.000000, 1666.000000)">
                <path d="M86.388,24 C53.041,24 26,51.036 26,84.388 C26,111.069 43.303,133.705 67.297,141.69 C70.315,142.249 71.423,140.38 71.423,138.785 C71.423,137.345 71.367,132.588 71.341,127.542 C54.541,131.195 50.996,120.417 50.996,120.417 C48.249,113.437 44.291,111.581 44.291,111.581 C38.812,107.833 44.704,107.91 44.704,107.91 C50.768,108.336 53.961,114.133 53.961,114.133 C59.347,123.365 68.088,120.696 71.534,119.153 C72.076,115.25 73.641,112.586 75.368,111.078 C61.955,109.551 47.855,104.373 47.855,81.234 C47.855,74.641 50.214,69.254 54.077,65.025 C53.45,63.504 51.383,57.362 54.662,49.044 C54.662,49.044 59.733,47.421 71.273,55.234 C76.09,53.896 81.256,53.225 86.388,53.202 C91.52,53.225 96.69,53.896 101.516,55.234 C113.042,47.421 118.106,49.044 118.106,49.044 C121.393,57.362 119.325,63.504 118.698,65.025 C122.57,69.254 124.913,74.641 124.913,81.234 C124.913,104.428 110.786,109.535 97.339,111.03 C99.505,112.904 101.435,116.579 101.435,122.213 C101.435,130.293 101.365,136.796 101.365,138.785 C101.365,140.392 102.452,142.275 105.513,141.682 C129.494,133.688 146.775,111.06 146.775,84.388 C146.775,51.036 119.738,24 86.388,24"></path>
            </g>
        </g>
    </g>
</svg>