<?xml version="1.0" encoding="UTF-8"?>
<svg width="166px" height="162px" viewBox="0 0 166 162" version="1.1" xmlns="http://www.w3.org/2000/svg" xmlns:xlink="http://www.w3.org/1999/xlink">
    <!-- Generator: Sketch 49 (51002) - http://www.bohemiancoding.com/sketch -->
    <title>Fill 4</title>
    <desc>Created with Sketch.</desc>
    <defs></defs>
    <g id="Page-1" stroke="none" stroke-width="1" fill="none" fill-rule="evenodd">
        <g id="Landing-Page" transform="translate(-532.000000, -1882.000000)" fill="#161514">
            <path d="M614.926832,1882 C569.135825,1882 532,1919.13073 532,1964.93701 C532,2001.57898 555.761022,2032.66127 588.716902,2043.6279 C592.866299,2044.39159 594.37841,2041.83067 594.37841,2039.63124 C594.37841,2037.666 594.307132,2032.44744 594.266402,2025.52838 C571.197795,2030.53821 566.330527,2014.40902 566.330527,2014.40902 C562.557886,2004.82722 557.120395,2002.27649 557.120395,2002.27649 C549.590386,1997.13429 557.690618,1997.23612 557.690618,1997.23612 C566.014868,1997.82162 570.393372,2005.78438 570.393372,2005.78438 C577.791007,2018.45659 589.806437,2014.79596 594.531148,2012.67289 C595.284658,2007.31686 597.428089,2003.66132 599.795536,2001.58917 C581.380362,1999.49665 562.01821,1992.37903 562.01821,1960.59924 C562.01821,1951.54694 565.251175,1944.13912 570.556293,1938.34524 C569.700957,1936.24763 566.854929,1927.81137 571.370898,1916.39671 C571.370898,1916.39671 578.330683,1914.16673 594.174759,1924.89916 C600.788336,1923.05611 607.885586,1922.13968 614.937014,1922.10404 C621.983351,1922.13968 629.07551,1923.05611 635.69927,1924.89916 C651.533163,1914.16673 658.482765,1916.39671 658.482765,1916.39671 C663.008917,1927.81137 660.162889,1936.24763 659.312644,1938.34524 C664.627945,1944.13912 667.835454,1951.54694 667.835454,1960.59924 C667.835454,1992.46049 648.442753,1999.47119 629.971575,2001.52298 C632.944885,2004.0839 635.597444,2009.14463 635.597444,2016.88338 C635.597444,2027.96711 635.495618,2036.91249 635.495618,2039.63124 C635.495618,2041.85104 636.992456,2044.43232 641.197856,2043.62281 C674.12828,2032.63072 697.868937,2001.5688 697.868937,1964.93701 C697.868937,1919.13073 660.733113,1882 614.926832,1882" id="Fill-4"></path>
        </g>
    </g>
</svg>