<svg xmlns="http://www.w3.org/2000/svg" viewBox="0 0 311.71 69.78"><defs><style>.cls-1{fill:#da1c5c;}.cls-2{fill:#231f20;}</style></defs><title>logo</title><g id="Layer_1" data-name="Layer 1"><path class="cls-1" d="M176.59,316.19a.36.36,0,0,1,0-.11v-.29c0-.12,0-.23,0-.34l-3.7-.76c-9.06-1.87-8.31,13.89-9.77,18.44a.72.72,0,0,1-1.12.35,14.92,14.92,0,0,0-9.46-3.2c-10,0-17.82,8.28-17.82,18.72s7.83,18.72,17.82,18.72a14.9,14.9,0,0,0,9.11-2.93.72.72,0,0,1,1.15.57v1a.72.72,0,0,0,.73.72l9.91-.07a.73.73,0,0,0,.72-.79l-3-29.93a.89.89,0,0,1,0-.23C171.56,334.58,170,318.52,176.59,316.19Zm-21.78,41.36a8.48,8.48,0,0,1-8.51-7.8,8.65,8.65,0,0,1,7.95-9.28,8.55,8.55,0,1,1,.56,17.08Z" transform="translate(-134.74 -297.94)"/><path class="cls-2" d="M212.59,330.42v10.17a15.61,15.61,0,0,0-3.33-.36c-5.67,0-9.72,3.42-9.72,9.36v17.19H188v-36h11.52v5a11.93,11.93,0,0,1,10.08-5.67A10,10,0,0,1,212.59,330.42Z" transform="translate(-134.74 -297.94)"/><path class="cls-2" d="M259.48,357.42v9.36a7.66,7.66,0,0,1-3.06.72,12.71,12.71,0,0,1-11.07-6.12A15.09,15.09,0,0,1,233,367.5c-10,0-17.82-8.28-17.82-18.72S223,330.06,233,330.06a14.91,14.91,0,0,1,10.26,3.87v-3.15h11.43v23.13c0,3,1.62,3.51,3.15,3.51Zm-15.66-8.64a8.62,8.62,0,0,0-12.59-7.61,7.78,7.78,0,0,0-4,4.57,8.57,8.57,0,1,0,16.6,3Z" transform="translate(-134.74 -297.94)"/><path class="cls-2" d="M263.62,348.78c0-10.8,8-18.72,20.07-18.72,10.8,0,18.18,6.3,19.71,15.3H291.52a8.27,8.27,0,0,0-7.83-5.13,8.55,8.55,0,0,0,0,17.1,8.27,8.27,0,0,0,7.83-5.13H303.4c-1.53,9-8.91,15.3-19.71,15.3C271.63,367.5,263.62,359.58,263.62,348.78Z" transform="translate(-134.74 -297.94)"/><path class="cls-2" d="M345.43,344v22.77H333.91V345.9a5.44,5.44,0,0,0-5.49-5.67,6.26,6.26,0,0,0-6.12,6.21v20.34H310.78V305.13H322.3v29.7a13.18,13.18,0,0,1,10.08-4.77C339.67,330.06,345.43,336.09,345.43,344Z" transform="translate(-134.74 -297.94)"/><path class="cls-2" d="M368.38,339.69v12.87c0,3,1.71,4.86,4.14,4.86h4.32v8.91c-.9.63-3.33,1.17-5.76,1.17-7.65,0-14.13-5.94-14.13-13.59V339.69h-6v-8.91h6V316.92h11.43v13.86h8.55v8.91Z" transform="translate(-134.74 -297.94)"/><path class="cls-2" d="M386.13,319.35a6.3,6.3,0,1,1,4,5A6.31,6.31,0,0,1,386.13,319.35Zm.48,11.43H398v36H386.61Z" transform="translate(-134.74 -297.94)"/><path class="cls-2" d="M406.41,348.78c0-10.8,8-18.72,20.07-18.72s20,7.92,20,18.72-7.92,18.72-20,18.72S406.41,359.58,406.41,348.78Zm28.62,0a8.55,8.55,0,1,0-8.55,8.55A8.43,8.43,0,0,0,435,348.78Z" transform="translate(-134.74 -297.94)"/></g><g id="Layer_2" data-name="Layer 2"><path class="cls-1" d="M176.57,316.08v-.29a4.62,4.62,0,0,1,.11-1c.57-10.91.75-21.31-1.17-14.89-3.53,11.89-20.58,25.67-20.58,25.67s11.52-3.47,14.38-7.4,6.12,15.55,6.12,15.55.68-8.64,1.17-17.43A1.66,1.66,0,0,1,176.57,316.08Z" transform="translate(-134.74 -297.94)"/></g></svg>